<?xml version="1.0" encoding="utf-8"?>
<!-- Generator: Adobe Illustrator 27.3.1, SVG Export Plug-In . SVG Version: 6.00 Build 0)  -->
<svg version="1.1" xmlns="http://www.w3.org/2000/svg" xmlns:xlink="http://www.w3.org/1999/xlink" x="0px" y="0px"
	 viewBox="0 0 4695.6 5000" style="enable-background:new 0 0 4695.6 5000;" xml:space="preserve">
<style type="text/css">
	.st0{fill-rule:evenodd;clip-rule:evenodd;}
	.st1{fill:none;stroke:#FFFFFF;stroke-width:40;stroke-miterlimit:10;}
	.st2{fill:none;stroke:#010202;stroke-width:40;stroke-miterlimit:10;}
	.st3{fill:#FFFFFF;stroke:#FFFFFF;stroke-width:41;stroke-miterlimit:10;}
	.st4{fill:#FFFFFF;stroke:#FFFFFF;stroke-width:42;stroke-miterlimit:10;}
	.st5{stroke:#000000;stroke-width:41;stroke-miterlimit:10;}
	.st6{stroke:#000000;stroke-width:49;stroke-miterlimit:10;}
</style>
<g id="Maestro">
	<g>
		<path class="st0" d="M13383.9,175.3l21.4,0.9l25.6,3.8l20.7,5.1l19.8,6.6l18.4,8.1l18.8,10.5l18.3,12.8l14.2,12.2l15.5,16l14,17.7
			l16,25l8.9,17.7l8,20.1l5,16.6l4.7,24l2,23.1l-0.8,27l-2.2,17.3l-4.8,22.6l-6.7,22.2l-8.5,20.7l-10.3,19.6l-12.2,18.2l-14,16.8
			l-15.9,15.6l-17.7,14.1l-19.5,12.8l-20.3,11l-20.6,8.6l-21,6.5l-21.3,4.1l-21.7,2l-22.1-0.4l-22.6-2.5l-22.6-4.9l-19.8-5.9
			l-18.7-7.5l-23.5-12.3l-20.7-14.3l-14.6-12.6l-15.1-15.8l-13.8-17.5l-12.8-19.8l-10.8-20.4l-10.3-26l-5.9-21.4l-3.5-21.5
			l-1.4-22.1l0.9-22.3l3-22.8l6.1-25.7l7.7-22.5l10.1-21.9l9.6-16.4l11.3-15.8l14.4-16.5l16.3-15.2l21.2-16.1l15.6-9.7l20.6-10.6
			l21.6-8.4l23.2-6.4l19.5-3.2L13383.9,175.3z M13381.6,134.4l-27.4,1.6l-13.1,1.8l-16.1,3.3l-21.4,6.1l-28.7,11.5l-25.9,13.7
			l-21.6,14.2l-22.7,18.2l-18.9,18.6l-15.4,18.3l-15.7,23.3l-13.7,26.2l-7.9,19.5l-8.7,28.3l-5.6,27.8l-3,26.8l-0.4,26.5l2.4,26.3
			l5,25.5l7.5,25.1l10.2,24.8l12.8,24.3l11.2,17.7l8,11.1l16.4,19.8l18.6,18.5l16.5,13.6l20.9,14.2l28.2,14.7l22.3,8.9l23.5,6.9
			l26.9,5.8l26.7,3l26.4,0.4l25.8-2.3l25.4-5l25-7.7l24.5-10.3l23.9-12.9l23.2-15.3l21-16.9l18.9-18.5l16.7-20.1l14.5-21.7
			l12.3-23.1l10.2-24.8l7.9-26.3l6.4-32.2l2.4-23.9l0.3-23.6l-2.3-27.3l-4.4-23.4l-7.3-25.2l-9.5-23.8l-10.7-21.1l-14.9-24.1
			l-17.3-22.9l-17.7-19.1l-20.8-18.3l-21.7-15.3l-22.5-12.5l-21.7-9.6l-23.7-7.9l-24.7-6l-30.3-4.5L13381.6,134.4z M13382.8,75.3
			l26.5,0.8l21.2,2.5l20.4,3.5l35.8,9l22.9,7.9l15.2,6.3l16.7,8l26.2,15.2l22.2,15.9l25.2,22.1l21.5,23.3l11.4,14.3l9.6,13.5
			l18.2,29.2l13,25.7l11.6,29.1l8.8,30.4l4.4,21.7l1.9,13.6l1.9,26.4l-0.7,34l-3.6,30l-6.7,32.7l-4.5,16.4l-8,23.4l-13,29.6
			l-11.5,21l-17.6,26.3l-20.2,24.4l-23,22.6l-25.5,20.5l-28.2,18.6l-29.3,15.9l-29.8,12.4l-30.4,9.3l-30.8,6l-31.5,2.9l-32-0.5
			l-32.4-3.7l-32.9-7l-28.5-8.5l-31.9-13l-24.6-12.9l-26.1-17l-24.1-19.6l-22.6-22.5l-19.9-24l-19.1-27.9l-16.4-29.4l-13.2-29.9
			l-5.3-15l-6.6-23.1l-6-30.9l-2.8-31.9l0.5-32.1l3.6-32.9l7.8-37.1l6.1-20.5l5.4-15.2l6.2-15.4l6.9-14.6l9.2-17.3l8.3-13.5
			l16.4-22.8l20.9-23.8l23.6-22l26.3-20.2l26.8-17.1l29.8-15.3l31.3-12.2l22.6-6.7l10.8-2.5l31.4-4.9L13382.8,75.3z M11475,2279.8
			h1.2l519.4,522.2l0.2,1.1l-220.1,457.7l-1.1,0.2l-76.8-77.2l0-1.2l107.5-109.7l0.9-1.9l-0.9-2.5l-20.8-20.8l-2.2-0.9l-1.2,0.3
			l-108,110.2l-1.2,0l-162.4-164.3v-1.2l166.7-170.4l0.9-2l-0.9-2.5l-20.8-20.6l-2.1-0.9l-2.2,1l-166.3,170l-1.2,0l-162.4-164.5
			l0-1.2l103.8-106.5l0.9-1.9l-0.9-2.5l-20.8-20.8l-2.2-0.9l-1.2,0.3l-104.8,106.9h-1.2l-155.5-157.8l0-1.2L11475,2279.8z
			 M15297.8,2282l337.8,340.8v1.2l-151.8,153.5h-1.2l-113.5-115.4l-1.2-0.2l-2.2,0.9l-20.9,21l-0.9,2.5l0.9,1.9l112.6,114.6l0,1.2
			l-162.9,164.3l-1.2,0l-174.1-178.3l-2.2-0.9l-2.1,0.9l-21.1,20.7l-0.9,2.2l0.9,2.2l174.4,178.6l0,1.2l-162.4,163.8l-1.2,0
			l-114.9-117.2l-2.2-0.9l-2.2,0.9l-20.8,21l-0.9,2.2l0.9,2.2l114.9,117l0,1.2l-75.6,76.1l-1.1-0.2l-220.5-456.7l0.2-1.1
			l514.2-521.1H15297.8z M13379.3,1830.7l-23.9,0.3l-24.1,1.3l-40.1,4.6l-52.7,8.7l-18.5,4.1l-52.5,13.9l-22.6,7.2l-40.8,14.5
			l-53.1,22.1l-51.8,25l-32,16.3l-29,16.9l-13,8.9l-38.8,29.3l-13.8,12l-41.9,38.5l-22.5,23.8l-22.4,24.7l-25.6,31.2l-18.1,24.4
			l-16.8,24.9l-22.9,38.9l-14.1,26.3l-13,27.4l-17.4,41.8l-16.9,49.9l-7.1,24l-12.3,47.7l-5.6,26l-15.3,87l-3,21.7l-5.1,46.4
			l-2.1,23.6l-1,21.6l0.5,40.3l2.2,35.2l2.7,27.5l8.6,54.7l6.1,27.4l14.5,53.9l13.9,42.7l12.3,31.7l16.1,38.1l12.4,26.8l35.3,65.7
			l18.5,30.1l34.7,47.1l23.1,27.9l28.7,32l32.1,31.9l25.5,23.1l23.6,18.6l34.4,25.2l36.1,23.8l29.6,18l31.2,17.1l42.4,20l34.3,13.4
			l23.9,8.2l32.3,9.9l33.3,8.2l42.1,7.8l44.5,5.9l28.8,2.9l42.4,2.1l62.9-0.6l41.9-2.6l47.5-5.1l35.9-6.2l56.7-13.3l29.1-7.7
			l51.5-16.5l21-7.8l49.6-20.6l24.1-10.8l72-34.7l48.2-24.6l47.8-25.2l20.5-13l11.2-11.3l6.4-9.7l6.5-17.2l2.7-16.6l-0.5-256.4
			l0.3-11.4l2.7-16.5l7-15.5l5.1-8.1l12.4-14.6l7.4-6.8l8-6.3l21.1-12.6l12.2-6l27.7-11.3l4.6-2.5l3.8-3l3.6-3.6l4.9-8.3l1.8-4.7
			l2-13.3l-0.6-32.7l-3-32l-5.5-27.8l-4-7.5l-3.6-2.9l-9.8-4.7l-6.1-1.5l-10-0.7l-29.5,1.2l-182.8,3.7l-266-4.4l-7.2,0.4l-6.9,1.5
			l-5.4,2.8l-8.9,7.8l-5.3,10.4l-3.3,14.2l-2.1,23.7l0.3,22.6l1.8,14.5l3,13.3l5,12l3.7,5.9l8.9,10.4l5.3,4.6l6.3,4.7l25,16
			l35.9,19.4l13,11.2l6.6,8.7l2.4,4.8l1.2,5.5l2.8,28.4l4.2,106.3l-0.5,13.8l-1.9,13.7l-5.5,16.7l-3.9,8.1l-3.9,6.1l-11.2,15.5
			l-29.9,34.9l-16.1,15.9l-16.8,14.6l-15.8,11.2l-18.9,10.9l-13.3,7l-33.2,15.1l-34.6,12.4l-38.7,10.3l-23.4,5.2l-10.8,1.5l-35,2.1
			l-36.8-0.8l-36.5-3.7l-12.1-1.8l-24-5.4l-23.2-6.5l-11.2-4l-32.9-13.8l-31.7-17.7l-29.8-21l-19-15.6l-9.6-8.9l-17.9-17.8l-8-9
			l-8.4-9.7l-15-19.6l-13.7-20.3l-12.2-20.9l-11.1-22l-9.5-22.7l-7.2-20.7l-7.9-27.4l-6.3-28l-5.5-37.8l-2.1-28.6l-0.2-19.3
			l-0.3-90.1l0.9-89.6l-0.5-46.4l1-92.4l3-75.3l5.8-58.2l9.7-57.2l6-28.3l6.9-28l12.5-41.6l4.8-13.3l5.3-13l12.1-25.3l9-15.7
			l20.8-30.9l17.6-21.4l9.4-10l10-10.1l21.3-18.8l23.5-18l12.2-8.3l25.5-15l25.9-12.7l13.5-5.7l27.5-9.6l28.2-7.5l29.1-4.9l29.9-2.8
			l15.5-0.5l58.1,1.2l23.6,1.5l33.9,4.2l42.4,7.5l28.4,6.5l42,12.6l42.5,16.8l24.1,13.2l25.7,17.6l22.7,18.7l15.3,15.1l18.4,21.5
			l18.3,26l16,27.1l5,10.2l5.6,14.4l3.4,13.7l1.9,21.4l-2.6,51.7l0.2,7.9l3.1,23.2l4.4,14l9.4,19.7l8.6,12.2l10.2,11.4l12.3,10.6
			l5.6,3l4,1.1l17.9,1.9l41,0.5l10.8-0.5l19.3-3.7l15.9-7l9.9-6.8l3.7-3.7l2.8-4.4l1.8-5.3l0.6-4.8l-1.8-124.5l0.2-278.2l-1.9-99.7
			l-0.7-8.3l-2.7-7.5l-2.2-4.5l-8.9-11l-4.2-2.5l-23.4-3.5l-54.1-2.1h-12.7l-5.7,1.3l-8.7,3.8l-4.1,2.8l-4.2,3.3l-6.5,7.1l-4.6,6.8
			l-16.8,31.1l-1.1,0.4l-46.8-17.9l-63-21.4l-60.1-17.8l-33.7-8.3l-68-13.4l-50.6-7.7l-53-6.1l-24.1-1.3L13379.3,1830.7z
			 M13691.3,607.4l1.1,0.1l1433.5,2998.1l26,59.2l0.6,2.5l-0.7,1.5l-2.7,0.3l-4.3-0.7l-9-5.1l-32.6-26.3l-14.9-11.1l-40.2-27
			l-11.3-6.3l-12.1-5.1l-6.2-2l-19.2-3.2l-783.1-1628l-31.3-56.6l-23-37.7l-32.7-49.5l-46.1-63.7l-10.2-12.4l-27.5-30.5l-18.4-17.1
			l-17.9-13.9l-19.5-13.4l-20.7-12.1l-29.9-14.3l-20.5-7.7l-22-6.7l-26.3-5.5l-17.4-2.3l-21-1.5l-434.2-769.2l18.3-41.3l6.4-11.8
			l2-1.4l4.3-1.2l44-9l23-6.7l13.8-4.9l24.4-11.2l36.1-21l22.5-16.5l11.5-9.8l11.6-11.2l49.6-55L13691.3,607.4z M13079.3,620.2
			l10.7,13.7l21.4,24.1l29.4,29.4l12.7,11.3l20.5,16.1l15,10.1l17.2,9.9l29.2,13.8l20.3,8.1l31.9,9.6l32.4,7l14.6,2.1l58.8,5.5
			l0.5,1l-458.9,835.5l-20.7,1.5l-30,4.7l-25,6.1l-20.6,7.2l-30.7,13.4l-21.4,11.4l-28.6,19l-10.2,7.8l-16.4,13.9l-9.7,9.3
			l-27.5,30.5l-10.2,12.4l-55.5,77.2l-34.7,54.1l-11.8,19.6l-31.2,56.5l-783.2,1628.3l-19.3,3.2l-6.2,2l-11.8,5l-11.4,6.3
			l-25.5,16.6l-14.9,10.6l-14.8,10.9l-32.8,26.4l-8.9,5l-4.4,0.7l-2.8-0.4l-0.7-1.4l0.6-2.5l26.1-59.4l1437.3-2993.2L13079.3,620.2z
			 M13385.5,866.3l1,0l423,768.5l2.7,1.6h10.7l14.8,1.6l23.2,4.4l22.9,5.8l22.9,7.3l10.4,3.8l19.8,9.3l19,11.1l17.8,13.1l25.4,22.1
			l16.6,16.1l32,34.8l14.5,17.5l27.7,36.9l13.5,19.3l52.1,79.9l12.4,20.8l29.6,55.6l429.9,877.5l-0.2,1.1l-1241.9,1262l-1.2,0
			l-1242.2-1250.3l-0.2-1.1l429.3-884.6l20.8-39.5l24.3-41.8l39.6-60.9l26.3-38.4l27.8-36.9l30.6-35.4l15.9-16.9l16.6-16.1
			l25.6-22.1l17.5-13.1l19-11l19.8-9.2l33.4-11.1l23.2-5.8l23.2-4.4l22.3-2.8l2.3-1.6L13385.5,866.3z M14641.1,2929.6l1.1,0.2
			l226.2,461.8l-0.2,1.1l-156.4,157.7l-1.2,0l-113.1-115.3l-2.2-0.9l-2.2,0.9l-20.6,20.8l-0.9,2.2l0.9,2.2l112.9,115.6l0,1.2
			l-159.6,160.8l-1.2,0l-177.4-181.3l-2.2-1l-2.2,0.9l-21.2,20.6l-0.9,2.5l0.9,2l177.9,181.6v1.2l-162.4,164.2l-1.2,0l-114-116.8
			l-2.2-0.9l-2.2,1l-20.8,21l-0.9,2.2l0.9,2.2l114,116.8l0,1.2l-169.8,171.2l-1.2,0l-174.4-178.5l-2.2-1l-2.2,0.9l-21.3,20.6
			l-0.9,2.5l0.9,2l175.1,178.6l0,1.2l-162.6,163.8h-1.2l-118.1-120l-1.2-0.3l-2.1,0.9l-20.9,20.9l-0.9,2.5l0.9,1.9l117.4,119.5v1.2
			l-168.6,170.6l-1.2,0l-173.3-177.3l-2.2-0.9l-2.2,0.9l-21.3,20.6l-0.9,2.2l0.9,2.2l173.7,177.5l0,1.2l-162.8,169.6h-1.2
			l-118.1-120.2l-1.2-0.2l-2.2,0.9l-20.9,21l-0.9,2.5l0.9,1.9l117.5,119.6l0,1.2l-164.3,161.3h-1.2l-157.2-158.4l0-1.2l111.4-114.2
			l0.9-1.9l-0.9-2.5l-20.6-20.8l-2.2-0.9l-1.2,0.2l-112.7,114.9h-1.2l-163.3-169.6l0-1.2l168.4-172.4l0.9-2.2l-0.9-2.2l-20.8-20.6
			l-2.2-0.9l-2.2,0.9l-167.9,171.9l-1.2,0l-168.5-170.3l0-1.2l112.2-115.2l0.2-1.8l-0.8-1.6l-20.6-21l-2.2-0.9l-2.2,0.9
			l-111.6,114.2l-1.2,0l-162.1-164.2l0-1.2l168.8-173.1l0.9-1.9l-0.9-2.5l-20.8-20.5l-2.2-0.9l-2.2,0.9l-168.6,172.6l-1.2,0
			l-169.8-171.9l0-1.2l108-110l0.9-1.9l-0.9-2.5l-20.8-21.1l-2.2-0.9l-1.2,0.2l-108.5,110.7l-1.2,0l-162.4-164.2l0-1.2l171.2-175.2
			l0.9-1.9l-0.9-2.5l-20.8-20.6l-2.1-0.9l-2.2,0.9l-171.2,174.7h-1.2l-159.2-161.1l0-1.2l106.6-109.4l0.2-1.8l-0.8-1.6l-20.8-21.1
			l-2.2-0.9l-2.2,0.9l-105.9,108.4l-1.2,0l-156.1-157.2l-0.2-1.1l225.7-462.3l1.1-0.2l1260.7,1270.4l2.2,0.9l2.2-0.9L14641.1,2929.6
			L14641.1,2929.6z M13398.3,37.9l-23.6,0l-27,1.4L13314,44l-16.3,3.8l-16.3,4l-31,10.6l-14.9,6.6l-28.8,15.4l-13.1,7.7l-27.8,19.3
			l-26,22l-21.4,20.6l-19.2,21l-8.5,10.9l-15.8,22.1l-16.7,28l-14.1,30.3l-7.1,18.1l-5.8,17.8l-4.7,17.6l-7,36.3l-3.2,37.4
			l-0.2,31.8l1.3,24.1l2.8,23.6l4.1,23.2l5.6,22.7l6.9,22.2l8.4,21.5l15.2,32.4l-1045.1,2165.8l-1.1,0.2l-538.7-542.1l-2.2-0.9
			l-2.2,0.9l-397.8,402.4l-0.9,2.5l0.9,1.9l679.6,689.2l0.2,1.1l-236.3,485.5l0.1,2.9l4.1,5.5l7.5,5.5l8.7,2.7l10.4,0.7l6.7-2.2
			l88.4-92.2l26.6-24.8l26.7-22.2l28.1-19.5l21-11l7.4-2.8l15.7-3.2l23.3-0.7l93.3-190.6l1.1-0.2l1498.6,1512.1l2.2,0.9l2.2-0.9
			l1498.6-1512.1l1.1,0.2l93.3,190.5l1.6,0.5l12.1-0.5l10.6,1.1l10.3,1.9l10.5,3.3l14.8,6.6l9.2,5.8l26.2,18.9l26.8,22.1l16.9,16
			l41.9,41.8l45.1,47.7l14.7,13.3l1.9,0.7l6.7,0.2l9-2.1l7.8-4.2l6.5-6.1l1.9-2.6l0.1-3l-235.3-485.3l0.2-1.1l675-685.6l0.9-2.2
			l-0.9-2.2l-397.8-401.2l-2.2-0.9l-2.1,0.9l-536.3,537.3l-1.1-0.2l-792.1-1681l-251.4-485.4l9.7-18.2l9.7-23.2l12.3-37.7l3.1-13.4
			l5-28.7l2.8-23.6l2-28.1l0-12.9l-2-33.7l-7.7-50.9l-6.6-25.2l-9.7-26.3l-11.3-26l-14.4-26.1l-9.8-15.3l-10.6-15.1l-23.4-28.8
			l-25.9-26.4l-13.1-11.5l-20.5-16.2l-19.2-13.2l-23.1-13.7l-14.7-7.5l-22.5-9.8l-21.1-7.7l-22-6.3l-25.5-5.7l-25-3.6L13398.3,37.9z
			 M13398.3,37.9"/>
	</g>
</g>
<g id="Compañero">
	<g>
		<path class="st0" d="M8066.1,176.7l21.4,0.9l25.6,3.8l20.7,5.1l19.8,6.6l18.4,8.1l18.8,10.5l18.3,12.8l14.2,12.2l15.5,16l14,17.7
			l16,25l8.9,17.7l8,20.1l5,16.6l4.7,24l2,23.1l-0.8,27l-2.2,17.3l-4.8,22.6l-6.7,22.2l-8.5,20.7l-10.3,19.6l-12.2,18.2l-14,16.8
			l-15.9,15.6l-17.7,14.1l-19.5,12.8l-20.3,11l-20.6,8.6l-21,6.5l-21.3,4.1l-21.7,2l-22.1-0.4l-22.6-2.5l-22.6-4.9l-19.8-5.9
			l-18.7-7.5l-23.5-12.3l-20.7-14.3l-14.6-12.6l-15.1-15.8l-13.8-17.5l-12.8-19.8l-10.8-20.4l-10.3-26l-5.9-21.4l-3.5-21.5
			l-1.4-22.1l0.9-22.3l3-22.8l6.1-25.7l7.7-22.5l10.1-21.9l9.6-16.4l11.3-15.8l14.4-16.5l16.3-15.2l21.2-16.1l15.6-9.7l20.6-10.6
			l21.6-8.4l23.2-6.4l19.5-3.2L8066.1,176.7z M8063.8,135.7l-27.4,1.6l-13.1,1.8l-16.1,3.3l-21.4,6.1l-28.7,11.5l-25.9,13.7
			l-21.6,14.2l-22.7,18.2l-18.9,18.6l-15.4,18.3l-15.7,23.3l-13.7,26.2l-7.9,19.5l-8.7,28.3l-5.6,27.8l-3,26.8l-0.4,26.5l2.4,26.3
			l5,25.5l7.5,25.1l10.2,24.8l12.8,24.3l11.2,17.7l8,11.1l16.4,19.8l18.6,18.5l16.5,13.6l20.9,14.2l28.2,14.7l22.3,8.9l23.5,6.9
			l26.9,5.8l26.7,3l26.4,0.4l25.8-2.3l25.4-5l25-7.7l24.5-10.3l23.9-12.9l23.2-15.3l21-16.9l18.9-18.5l16.7-20.1l14.5-21.7
			l12.3-23.1l10.2-24.8l7.9-26.3l6.4-32.2l2.4-23.9l0.3-23.6l-2.3-27.3l-4.4-23.4l-7.3-25.2l-9.5-23.8l-10.7-21.1l-14.9-24.1
			l-17.3-22.9l-17.7-19.1l-20.8-18.3l-21.7-15.3l-22.5-12.5l-21.7-9.6l-23.7-7.9l-24.7-6l-30.3-4.5L8063.8,135.7z M8065,76.6
			l26.5,0.8l21.2,2.5l20.4,3.5l35.8,9l22.9,7.9l15.2,6.3l16.7,8l26.2,15.2l22.2,15.9l25.2,22.1l21.5,23.3l11.4,14.3l9.6,13.5
			l18.2,29.2l13,25.7l11.6,29.1l8.8,30.4l4.4,21.7l1.9,13.6l1.9,26.4l-0.7,34l-3.6,30l-6.7,32.7l-4.5,16.4l-8,23.4l-13,29.6
			l-11.5,21l-17.6,26.3l-20.2,24.4l-23,22.6l-25.5,20.5l-28.2,18.6l-29.3,15.9l-29.8,12.4l-30.4,9.3l-30.8,6l-31.5,2.9l-32-0.5
			l-32.4-3.7l-32.9-7l-28.5-8.5l-31.9-13l-24.6-12.9l-26.1-17l-24.1-19.6l-22.6-22.5l-19.9-24l-19.1-27.9l-16.4-29.4l-13.2-29.9
			l-5.3-15l-6.6-23.1l-6-30.9l-2.8-31.9l0.5-32.1l3.6-32.9l7.8-37.1l6.1-20.5l5.4-15.2l6.2-15.4l6.9-14.6l9.2-17.3l8.3-13.5
			l16.4-22.8l20.9-23.8l23.6-22l26.3-20.2l26.8-17.1l29.8-15.3l31.3-12.2l22.6-6.7l10.8-2.5l31.4-4.9L8065,76.6z M6157.2,2281.2h1.2
			l519.4,522.2l0.2,1.1l-220.1,457.7l-1.1,0.2l-76.8-77.2l0-1.2l107.5-109.7l0.9-1.9l-0.9-2.5l-20.8-20.8l-2.2-0.9l-1.2,0.3
			l-108,110.2l-1.2,0l-162.4-164.3v-1.2l166.7-170.4l0.9-2l-0.9-2.5l-20.8-20.6l-2.1-0.9l-2.2,1l-166.3,170l-1.2,0l-162.4-164.5
			l0-1.2l103.8-106.5l0.9-1.9l-0.9-2.5l-20.8-20.8l-2.2-0.9l-1.2,0.3l-104.8,106.9h-1.2L5821.6,2619l0-1.2L6157.2,2281.2z
			 M9980,2283.3l337.8,340.8v1.2l-151.8,153.5h-1.2l-113.5-115.4l-1.2-0.2l-2.2,0.9l-20.9,21l-0.9,2.5l0.9,1.9l112.6,114.6l0,1.2
			l-162.9,164.3l-1.2,0l-174.1-178.3l-2.2-0.9l-2.1,0.9l-21.1,20.7l-0.9,2.2l0.9,2.2l174.4,178.6l0,1.2L9788,3159.9l-1.2,0
			L9672,3042.8l-2.2-0.9l-2.2,0.9l-20.8,21l-0.9,2.2l0.9,2.2l114.9,117l0,1.2l-75.6,76.1l-1.1-0.2l-220.5-456.7l0.2-1.1l514.2-521.1
			H9980z M8061.5,1832l-23.9,0.3l-24.1,1.3l-40.1,4.6l-52.7,8.7l-18.5,4.1l-52.5,13.9l-22.6,7.2l-40.8,14.5l-53.1,22.1l-51.8,25
			l-32,16.3l-29.1,16.9l-13,8.9l-38.8,29.3l-13.8,12l-41.9,38.5l-22.5,23.8l-22.4,24.7l-25.6,31.2l-18.1,24.4l-16.8,24.9l-22.9,38.9
			l-14.1,26.3l-13,27.4l-17.4,41.8l-16.9,49.9l-7.1,24l-12.3,47.7l-5.6,26l-15.3,87l-3,21.7l-5.1,46.4l-2.1,23.6l-1,21.6l0.5,40.3
			l2.2,35.2l2.7,27.5l8.6,54.7l6.1,27.4l14.5,53.9l13.9,42.7l12.3,31.7l16.1,38.1l12.4,26.8l35.3,65.7l18.5,30.1l34.7,47.1
			l23.1,27.9l28.7,32l32.1,31.9l25.5,23.1l23.6,18.6l34.4,25.2l36.1,23.8l29.6,18l31.2,17.1l42.4,20l34.3,13.4l23.9,8.2l32.3,9.9
			l33.3,8.2l42.1,7.8l44.5,5.9l28.8,2.9l42.4,2.1l62.9-0.6l41.9-2.6l47.5-5.1l35.9-6.2l56.7-13.3l29.1-7.7l51.5-16.5l21-7.8
			l49.6-20.6l24.1-10.8l72-34.7l48.2-24.6l47.8-25.2l20.5-13l11.2-11.3l6.4-9.7l6.5-17.2l2.7-16.6l-0.5-256.4l0.3-11.4l2.7-16.5
			l7-15.5l5.1-8.1l12.4-14.6l7.4-6.8l8-6.3l21.1-12.6l12.2-6l27.7-11.3l4.6-2.5l3.8-3l3.6-3.6l4.9-8.3l1.8-4.7l2-13.3l-0.6-32.7
			l-3-32l-5.5-27.8l-4-7.5l-3.6-2.9l-9.8-4.7l-6.1-1.5l-10-0.7l-29.5,1.2l-182.8,3.7l-266-4.4l-7.2,0.4l-6.9,1.5l-5.4,2.8l-8.9,7.8
			l-5.3,10.4l-3.3,14.2l-2.1,23.7l0.3,22.6l1.8,14.5l3,13.3l5,12l3.7,5.9l8.9,10.4l5.3,4.6l6.3,4.7l25,16l35.9,19.4l13,11.2l6.6,8.7
			l2.4,4.8l1.2,5.5l2.8,28.4l4.2,106.3l-0.5,13.8l-1.9,13.7l-5.5,16.7l-3.9,8.1l-3.9,6.1l-11.2,15.5l-29.9,34.9l-16.1,15.9
			l-16.8,14.6l-15.8,11.2l-18.9,10.9l-13.3,7l-33.2,15.1l-34.6,12.4l-38.7,10.3l-23.4,5.2l-10.8,1.5l-35,2.1l-36.8-0.8l-36.5-3.7
			l-12.1-1.8l-24-5.4l-23.2-6.5l-11.2-4l-32.9-13.8l-31.7-17.7l-29.8-21l-19-15.6l-9.6-8.9l-17.9-17.8l-8-9l-8.4-9.7l-15-19.6
			l-13.7-20.3l-12.2-20.9l-11.1-22l-9.5-22.7l-7.2-20.7l-7.9-27.4l-6.3-28l-5.5-37.8l-2.1-28.6l-0.2-19.3l-0.3-90.1l0.9-89.6
			l-0.5-46.4l1-92.4l3-75.3l5.8-58.2l9.7-57.2l6-28.3l6.9-28l12.5-41.6l4.8-13.3l5.3-13l12.1-25.3l9-15.7l20.8-30.9l17.6-21.4
			l9.4-10l10-10.1l21.3-18.8l23.5-18l12.2-8.3l25.5-15l25.9-12.7l13.5-5.7l27.5-9.6l28.2-7.5l29.1-4.9l29.9-2.8l15.5-0.5l58.1,1.2
			l23.6,1.5l33.9,4.2l42.4,7.5l28.4,6.5l42,12.6l42.5,16.8l24.1,13.2l25.7,17.6l22.7,18.7l15.3,15.1l18.4,21.5l18.3,26l16,27.1
			l5,10.2l5.6,14.4l3.4,13.7l1.9,21.4l-2.6,51.7l0.2,7.9l3.1,23.2l4.4,14l9.4,19.7l8.6,12.2l10.2,11.4l12.3,10.6l5.6,3l4,1.1
			l17.9,1.9l41,0.5l10.8-0.5l19.3-3.7l15.9-7l9.9-6.8l3.7-3.7l2.8-4.4l1.8-5.3l0.6-4.8l-1.8-124.5l0.2-278.2l-1.9-99.7l-0.7-8.3
			l-2.7-7.5l-2.2-4.5l-8.9-11l-4.2-2.5l-23.4-3.5l-54.1-2.1h-12.7l-5.7,1.3l-8.7,3.8l-4.1,2.8l-4.2,3.3l-6.5,7.1l-4.6,6.8
			l-16.8,31.1l-1.1,0.4l-46.8-17.9l-63-21.4l-60.1-17.8l-33.7-8.3l-68-13.4l-50.6-7.7l-53-6.1l-24.1-1.3L8061.5,1832z M8373.5,608.7
			l1.1,0.1l1433.5,2998.1l26,59.2l0.6,2.5l-0.7,1.5l-2.7,0.3l-4.3-0.7l-9-5.1l-32.6-26.3l-14.9-11.1l-40.2-27l-11.3-6.3l-12.1-5.1
			l-6.2-2l-19.2-3.2l-783.1-1628l-31.3-56.6l-23-37.7l-32.7-49.5l-46.1-63.7l-10.2-12.4l-27.5-30.5l-18.4-17.1l-17.9-13.9
			l-19.5-13.4l-20.7-12.1l-29.9-14.3l-20.5-7.7l-22-6.7l-26.3-5.5l-17.4-2.3l-21-1.5l-434.2-769.2l18.3-41.3l6.4-11.8l2-1.4l4.3-1.2
			l44-9l23-6.7l13.8-4.9l24.4-11.2l36.1-21l22.5-16.5l11.5-9.8l11.6-11.2l49.6-55L8373.5,608.7z M7761.5,621.5l10.7,13.7l21.4,24.1
			l29.4,29.4l12.7,11.3l20.5,16.1l15,10.1l17.2,9.9l29.2,13.8l20.3,8.1l31.9,9.6l32.4,7l14.6,2.1l58.8,5.5l0.5,1l-458.9,835.5
			l-20.7,1.5l-30,4.7l-25,6.1l-20.6,7.2l-30.7,13.4l-21.4,11.4l-28.6,19l-10.2,7.8l-16.4,13.9l-9.7,9.3l-27.5,30.5l-10.2,12.4
			l-55.5,77.2l-34.7,54.1l-11.8,19.6l-31.2,56.5l-783.2,1628.3l-19.3,3.2l-6.2,2l-11.8,5l-11.4,6.3l-25.5,16.6l-14.9,10.6
			l-14.8,10.9l-32.8,26.4l-8.9,5l-4.4,0.7l-2.8-0.4l-0.7-1.4l0.6-2.5l26.1-59.4L7760.5,621.6L7761.5,621.5z M8067.7,867.6l1,0
			l423,768.5l2.7,1.6h10.7l14.8,1.6l23.2,4.4l22.9,5.8l22.9,7.3l10.4,3.8l19.8,9.3l19,11.1l17.8,13.1l25.4,22.1l16.6,16.1l32,34.8
			l14.5,17.5l27.7,36.9l13.5,19.3l52.1,79.9l12.4,20.8l29.6,55.6l429.9,877.5l-0.2,1.1l-1241.9,1262l-1.2,0L6824,2887.4l-0.2-1.1
			l429.3-884.6l20.8-39.5l24.3-41.8l39.6-60.9l26.3-38.4l27.8-36.9l30.6-35.4l15.9-16.9l16.6-16.1l25.6-22.1l17.5-13.1l19-11
			l19.8-9.2l33.4-11.1l23.2-5.8l23.2-4.4l22.3-2.8l2.3-1.6L8067.7,867.6z M9323.3,2930.9l1.1,0.2l226.2,461.8l-0.2,1.1L9394,3551.6
			l-1.2,0l-113.1-115.3l-2.2-0.9l-2.2,0.9l-20.6,20.8l-0.9,2.2l0.9,2.2l112.9,115.6l0,1.2L9208,3739l-1.2,0l-177.4-181.3l-2.2-1
			l-2.2,0.9l-21.2,20.6l-0.9,2.5l0.9,2l177.9,181.6v1.2l-162.4,164.2l-1.2,0l-114-116.8l-2.2-0.9l-2.2,1l-20.8,21l-0.9,2.2l0.9,2.2
			l114,116.8l0,1.2l-169.8,171.2l-1.2,0l-174.4-178.5l-2.2-1l-2.2,0.9l-21.3,20.6l-0.9,2.5l0.9,2l175.1,178.6l0,1.2l-162.6,163.8
			h-1.2l-118.1-120l-1.2-0.3l-2.1,0.9l-20.9,20.9l-0.9,2.5l0.9,1.9l117.4,119.5v1.2l-168.6,170.6l-1.2,0l-173.3-177.3l-2.2-0.9
			l-2.2,0.9l-21.3,20.6l-0.9,2.2l0.9,2.2l173.7,177.5l0,1.2l-162.8,169.6h-1.2l-118.1-120.2l-1.2-0.2l-2.2,0.9l-20.9,21l-0.9,2.5
			l0.9,1.9l117.5,119.6l0,1.2L8060,4898.6h-1.2l-157.2-158.4l0-1.2l111.4-114.2l0.9-1.9l-0.9-2.5l-20.6-20.8l-2.2-0.9l-1.2,0.2
			l-112.7,114.9h-1.2l-163.3-169.6l0-1.2l168.4-172.4l0.9-2.2l-0.9-2.2l-20.8-20.6l-2.2-0.9l-2.2,0.9l-167.9,171.9l-1.2,0
			l-168.5-170.3l0-1.2l112.2-115.2l0.2-1.8l-0.8-1.6l-20.6-21l-2.2-0.9l-2.2,0.9l-111.6,114.2l-1.2,0l-162.1-164.2l0-1.2
			l168.8-173.1l0.9-1.9l-0.9-2.5l-20.8-20.5l-2.2-0.9l-2.2,0.9L7304.2,4130l-1.2,0L7133.2,3958l0-1.2l108-110l0.9-1.9l-0.9-2.5
			l-20.8-21.1l-2.2-0.9l-1.2,0.2l-108.5,110.7l-1.2,0l-162.4-164.2l0-1.2l171.2-175.2l0.9-1.9l-0.9-2.5l-20.8-20.6l-2.1-0.9
			l-2.2,0.9l-171.2,174.7h-1.2l-159.2-161.1l0-1.2l106.6-109.4l0.2-1.8l-0.8-1.6l-20.8-21.1l-2.2-0.9l-2.2,0.9l-105.9,108.4l-1.2,0
			l-156.1-157.2l-0.2-1.1l225.7-462.3l1.1-0.2l1260.7,1270.4l2.2,0.9l2.2-0.9L9323.3,2930.9L9323.3,2930.9z M8080.5,39.2l-23.6,0
			l-27,1.4l-33.7,4.7l-16.3,3.8l-16.3,4l-31,10.6l-14.9,6.6l-28.8,15.4l-13.1,7.7l-27.8,19.3l-26,22l-21.4,20.6l-19.2,21l-8.5,10.9
			l-15.8,22.1l-16.7,28l-14.1,30.3l-7.1,18.1l-5.8,17.8l-4.7,17.6l-7,36.3l-3.2,37.4l-0.2,31.8l1.3,24.1l2.8,23.6l4.1,23.2l5.6,22.7
			l6.9,22.2l8.4,21.5l15.2,32.4L6697.4,2762l-1.1,0.2l-538.7-542.1l-2.2-0.9l-2.2,0.9l-397.8,402.4l-0.9,2.5l0.9,1.9L6435,3316
			l0.2,1.1l-236.3,485.5l0.1,2.9l4.1,5.5l7.5,5.5l8.7,2.7l10.4,0.7l6.7-2.2l88.4-92.2l26.6-24.8l26.7-22.2l28.1-19.5l21-11l7.4-2.8
			l15.7-3.2l23.3-0.7l93.3-190.6l1.1-0.2l1498.6,1512.1l2.2,0.9l2.2-0.9l1498.6-1512.1l1.1,0.2l93.3,190.5l1.6,0.5l12.1-0.5
			l10.6,1.1l10.3,1.9l10.5,3.3l14.8,6.6l9.2,5.8l26.2,18.9l26.8,22.1l16.9,16l41.9,41.8l45.1,47.7l14.7,13.3l1.9,0.7l6.7,0.2l9-2.1
			l7.8-4.2l6.5-6.1l1.9-2.6l0.1-3L9703,3317.1l0.2-1.1l675-685.6l0.9-2.2l-0.9-2.2l-397.8-401.2l-2.2-0.9l-2.1,0.9l-536.3,537.3
			l-1.1-0.2l-792.1-1681L8395,595.6l9.7-18.2l9.7-23.2l12.3-37.7l3.1-13.4l5-28.7l2.8-23.6l2-28.1l0-12.9l-2-33.7l-7.7-50.9
			l-6.6-25.2l-9.7-26.3l-11.3-26l-14.4-26.1l-9.8-15.3l-10.6-15.1l-23.4-28.8l-25.9-26.4l-13.1-11.5l-20.5-16.2l-19.2-13.2
			l-23.1-13.7l-14.7-7.5l-22.5-9.8l-21.1-7.7l-22-6.3l-25.5-5.7l-25-3.6L8080.5,39.2z M8080.5,39.2"/>
	</g>
	<line class="st1" x1="6799.8" y1="2898.9" x2="6554.6" y2="3410.1"/>
	<line class="st1" x1="6699.1" y1="2794.8" x2="6460" y2="3302.1"/>
	<line class="st2" x1="6855.3" y1="2956.2" x2="6669.9" y2="2764.7"/>
	<line class="st2" x1="6609.9" y1="3457.1" x2="6424.6" y2="3265.6"/>
</g>
<g id="Aprendiz">
	<g>
		<g>
			<path class="st0" d="M2311.5,175.3l21.4,0.9l25.6,3.8l20.7,5.1l19.8,6.6l18.4,8.1l18.8,10.5l18.3,12.8l14.2,12.2l15.5,16l14,17.7
				l16,25l8.9,17.7l8,20.1l5,16.6l4.7,24l2,23.1l-0.8,27l-2.2,17.3l-4.8,22.6l-6.7,22.2l-8.5,20.7l-10.3,19.6l-12.2,18.2l-14,16.8
				l-15.9,15.6l-17.7,14.1l-19.5,12.8l-20.3,11l-20.6,8.6l-21,6.5l-21.3,4.1l-21.7,2l-22.1-0.4l-22.6-2.5l-22.6-4.9l-19.8-5.9
				l-18.7-7.5l-23.5-12.3l-20.7-14.3l-14.6-12.6l-15.1-15.8l-13.8-17.5l-12.8-19.8l-10.8-20.4l-10.3-26l-5.9-21.4l-3.5-21.5
				l-1.4-22.1l0.9-22.3l3-22.8l6.1-25.7l7.7-22.5l10.1-21.9l9.6-16.4l11.3-15.8l14.4-16.5l16.3-15.2l21.2-16.1l15.6-9.7l20.6-10.6
				l21.6-8.4l23.2-6.4l19.5-3.2L2311.5,175.3z M2309.3,134.4l-27.4,1.6l-13.1,1.8l-16.1,3.3l-21.4,6.1l-28.7,11.5l-25.9,13.7
				l-21.6,14.2l-22.7,18.2l-18.9,18.6l-15.4,18.3l-15.7,23.3l-13.7,26.2l-7.9,19.5l-8.7,28.3l-5.6,27.8l-3,26.8l-0.4,26.5l2.4,26.3
				l5,25.5l7.5,25.1l10.2,24.8l12.8,24.3l11.2,17.7l8,11.1l16.4,19.8l18.6,18.5l16.5,13.6l20.9,14.2l28.2,14.7l22.3,8.9l23.5,6.9
				l26.9,5.8l26.7,3l26.4,0.4l25.8-2.3l25.4-5l25-7.7l24.5-10.3l23.9-12.9l23.2-15.3l21-16.9l18.9-18.5l16.7-20.1l14.5-21.7
				l12.3-23.1l10.2-24.8l7.9-26.3l6.4-32.2l2.4-23.9l0.3-23.6l-2.3-27.3l-4.4-23.4l-7.3-25.2l-9.5-23.8l-10.7-21.1l-14.9-24.1
				l-17.3-22.9l-17.7-19.1l-20.8-18.3l-21.7-15.3l-22.5-12.5l-21.7-9.6l-23.7-7.9l-24.7-6l-30.3-4.5L2309.3,134.4z M2310.4,75.3
				L2337,76l21.2,2.5l20.4,3.5l35.8,9l22.9,7.9l15.2,6.3l16.7,8l26.2,15.2l22.2,15.9l25.2,22.1l21.5,23.3l11.4,14.3l9.6,13.5
				l18.2,29.2l13,25.7l11.6,29.1l8.8,30.4l4.4,21.7l1.9,13.6l1.9,26.4l-0.7,34l-3.6,30l-6.7,32.7l-4.5,16.4l-8,23.4l-13,29.6
				l-11.5,21l-17.6,26.3l-20.2,24.4l-23,22.6l-25.5,20.5l-28.2,18.6l-29.3,15.9l-29.8,12.4l-30.4,9.3l-30.8,6l-31.5,2.9l-32-0.5
				l-32.4-3.7l-32.9-7l-28.5-8.5l-31.9-13l-24.6-12.9l-26.1-17l-24.1-19.6l-22.6-22.5l-19.9-24l-19.1-27.9l-16.4-29.4l-13.2-29.9
				l-5.3-15l-6.6-23.1l-6-30.9l-2.8-31.9l0.5-32.1l3.6-32.9l7.8-37.1l6.1-20.5l5.4-15.2l6.2-15.4l6.9-14.6l9.2-17.3l8.3-13.5
				l16.4-22.8l20.9-23.8l23.6-22l26.3-20.2l26.8-17.1l29.8-15.3l31.3-12.2l22.6-6.7l10.8-2.5l31.4-4.9L2310.4,75.3z M402.6,2279.8
				h1.2L923.2,2802l0.2,1.1l-220.1,457.7l-1.1,0.2l-76.8-77.2l0-1.2l107.5-109.7l0.9-1.9l-0.9-2.5l-20.8-20.8l-2.2-0.9l-1.2,0.3
				l-108,110.2l-1.2,0L437.1,2993v-1.2l166.7-170.4l0.9-2l-0.9-2.5l-20.8-20.6l-2.1-0.9l-2.2,1l-166.3,170l-1.2,0l-162.4-164.5
				l0-1.2l103.8-106.5l0.9-1.9l-0.9-2.5l-20.8-20.8l-2.2-0.9l-1.2,0.3l-104.8,106.9h-1.2L67,2617.6l0-1.2L402.6,2279.8z
				 M3931.5,3261l-1.1-0.2l-220.5-456.7 M3709.9,2804.2l0.2-1.1l514.2-521.1h1.2l337.8,340.8v1.2l-151.8,153.5h-1.2L4296.7,2662
				l-1.2-0.2l-2.2,0.9l-20.9,21l-0.9,2.5l0.9,1.9l112.6,114.6l0,1.2l-162.9,164.3l-1.2,0L4046.9,2790l-2.2-0.9l-2.1,0.9l-21.1,20.7
				l-0.9,2.2l0.9,2.2l174.4,178.6l0,1.2l-162.4,163.8l-1.2,0l-114.9-117.2l-2.2-0.9l-2.2,0.9l-20.8,21l-0.9,2.2l0.9,2.2l114.9,117
				l0,1.2l-75.6,76.1 M2619,607.4l1.1,0.1l1433.5,2998.1l26,59.2l0.6,2.5l-0.7,1.5l-2.7,0.3l-4.3-0.7l-9-5.1l-32.6-26.3L4016,3626
				l-40.2-27l-11.3-6.3l-12.1-5.1l-6.2-2l-19.2-3.2l-783.1-1628l-31.3-56.6l-23-37.7l-32.7-49.5l-46.1-63.7l-10.2-12.4l-27.5-30.5
				l-18.4-17.1l-17.9-13.9l-19.5-13.4l-20.7-12.1l-29.9-14.3l-20.5-7.7l-22-6.7l-26.3-5.5l-17.4-2.3l-21-1.5l-434.2-769.2l18.3-41.3
				l6.4-11.8l2-1.4l4.3-1.2l44-9l23-6.7l13.8-4.9l24.4-11.2l36.1-21l22.5-16.5l11.5-9.8l11.6-11.2l49.6-55L2619,607.4z
				 M2006.9,620.2l10.7,13.7l21.4,24.1l29.4,29.4l12.7,11.3l20.5,16.1l15,10.1l17.2,9.9l29.2,13.8l20.3,8.1l31.9,9.6l32.4,7
				l14.6,2.1l58.8,5.5l0.5,1l-458.9,835.5l-20.7,1.5l-30,4.7l-25,6.1l-20.6,7.2l-30.7,13.4l-21.4,11.4l-28.6,19l-10.2,7.8
				l-16.4,13.9l-9.7,9.3l-27.5,30.5l-10.2,12.4l-55.5,77.2l-34.7,54.1l-11.8,19.6l-31.3,56.5L695.3,3590.3l-19.3,3.2l-6.2,2l-11.7,5
				l-11.4,6.3l-25.5,16.6l-14.9,10.6l-14.8,10.9l-32.8,26.4l-8.9,5l-4.4,0.7l-2.8-0.4l-0.7-1.4l0.6-2.5l26.1-59.4L2005.9,620.3
				L2006.9,620.2z M2313.1,876.3l1,0l423,768.5l2.7,1.6h10.7l14.8,1.6l23.2,4.4l22.9,5.8l22.9,7.3l10.4,3.8l19.8,9.3l19,11.1
				l17.8,13.1l25.4,22.1l16.6,16.1l32,34.8l14.5,17.5l27.7,36.9l13.5,19.3l52.1,79.9l12.4,20.8l29.6,55.6l429.9,877.5l-0.2,1.1
				l-1241.9,1262l-1.2,0L1069.5,2896.1l-0.2-1.1l429.3-884.6l20.8-39.5l24.3-41.8l39.6-60.9l26.3-38.4l27.8-36.9l30.6-35.4
				l15.9-16.9l16.6-16.1l25.6-22.1l17.5-13.1l19-11l19.8-9.2l33.4-11.1l23.2-5.8l23.2-4.4l22.3-2.8l2.3-1.6L2313.1,876.3z
				 M3568.8,2929.6l1.1,0.2l226.2,461.8l-0.2,1.1l-156.4,157.7l-1.2,0L3525.2,3435l-2.2-0.9l-2.2,0.9l-20.6,20.8l-0.9,2.2l0.9,2.2
				l112.9,115.6l0,1.2l-159.6,160.8l-1.2,0l-177.4-181.3l-2.2-1l-2.2,0.9l-21.2,20.6l-0.9,2.5l0.9,2l177.9,181.6v1.2l-162.4,164.2
				l-1.2,0l-114-116.8l-2.2-0.9l-2.2,1l-20.8,21l-0.9,2.2l0.9,2.2l114,116.8l0,1.2l-169.8,171.2l-1.2,0L2893,3947.8l-2.2-1l-2.2,0.9
				l-21.3,20.6l-0.9,2.5l0.9,2l175.1,178.6l0,1.2l-162.6,163.8h-1.2l-118.1-120l-1.2-0.3l-2.1,0.9l-20.9,20.9l-0.9,2.5l0.9,1.9
				l117.4,119.5v1.2l-168.6,170.6l-1.2,0l-173.3-177.3l-2.2-0.9l-2.2,0.9l-21.3,20.6l-0.9,2.2l0.9,2.2l173.7,177.5l0,1.2
				l-162.8,169.6h-1.2l-118.1-120.2l-1.2-0.2l-2.2,0.9l-20.9,21l-0.9,2.5l0.9,1.9l117.5,119.6l0,1.2l-164.3,161.3h-1.2l-157.2-158.4
				l0-1.2l111.4-114.2l0.9-1.9l-0.9-2.5l-20.6-20.8l-2.2-0.9l-1.2,0.2l-112.7,114.9h-1.2l-163.3-169.6l0-1.2l168.4-172.4l0.9-2.2
				l-0.9-2.2l-20.8-20.6l-2.2-0.9l-2.2,0.9l-167.9,171.9l-1.2,0L1763,4346l0-1.2l112.2-115.2l0.2-1.8l-0.8-1.6l-20.6-21l-2.2-0.9
				l-2.2,0.9l-111.6,114.2l-1.2,0l-162.1-164.2l0-1.2l168.8-173.1l0.9-1.9l-0.9-2.5l-20.8-20.5l-2.2-0.9l-2.2,0.9l-168.6,172.6
				l-1.2,0l-169.8-171.9l0-1.2l108-110l0.9-1.9l-0.9-2.5l-20.8-21.1l-2.2-0.9l-1.2,0.2L1354,3930l-1.2,0l-162.4-164.2l0-1.2
				l171.2-175.2l0.9-1.9l-0.9-2.5l-20.8-20.6l-2.1-0.9l-2.2,0.9l-171.2,174.7h-1.2l-159.2-161.1l0-1.2l106.6-109.4l0.2-1.8l-0.8-1.6
				l-20.8-21.1l-2.2-0.9l-2.2,0.9l-105.9,108.4l-1.2,0l-156.1-157.2l-0.2-1.1l225.7-462.3l1.1-0.2l1260.7,1270.4l2.2,0.9l2.2-0.9
				L3568.8,2929.6L3568.8,2929.6z M2325.9,37.9l-23.6,0l-27,1.4l-33.7,4.7l-16.3,3.8l-16.3,4l-31,10.6L2163,69l-28.8,15.4l-13.1,7.7
				l-27.8,19.3l-26,22l-21.4,20.6l-19.2,21l-8.5,10.9l-15.8,22.1l-16.7,28l-14.1,30.3l-7.1,18.1l-5.8,17.8l-4.7,17.6l-7,36.3
				l-3.2,37.4l-0.2,31.8l1.3,24.1l2.8,23.6l4.1,23.2l5.6,22.7l6.9,22.2l8.4,21.5l15.2,32.4L942.8,2760.6l-1.1,0.2L403,2218.7
				l-2.2-0.9l-2.2,0.9L0.9,2621.1l-0.9,2.5l0.9,1.9l679.6,689.2l0.2,1.1l-236.3,485.5l0.1,2.9l4.1,5.5l7.5,5.5l8.7,2.7l10.4,0.7
				l6.7-2.2l88.4-92.2l26.6-24.8l26.7-22.2l28.1-19.5l21-11l7.4-2.8l15.7-3.2l23.3-0.7l93.3-190.6l1.1-0.2l1498.6,1512.1l2.2,0.9
				l2.2-0.9l1498.6-1512.1l1.1,0.2l93.3,190.5l1.6,0.5l12.1-0.5l10.6,1.1l10.3,1.9l10.5,3.3l14.8,6.6l9.2,5.8l26.2,18.9l26.8,22.1
				l16.9,16l41.9,41.8l45.1,47.7l14.7,13.3l1.9,0.7l6.7,0.2l9-2.1l7.8-4.2l6.5-6.1l1.9-2.6l0.1-3l-235.3-485.3l0.2-1.1l675-685.6
				l0.9-2.2l-0.9-2.2l-397.8-401.2l-2.2-0.9l-2.1,0.9l-536.3,537.3l-1.1-0.2l-792.1-1681l-251.4-485.4l9.7-18.2l9.7-23.2l12.3-37.7
				l3.1-13.4l5-28.7l2.8-23.6l2-28.1l0-12.9l-2-33.7l-7.7-50.9l-6.6-25.2l-9.7-26.3l-11.3-26l-14.4-26.1l-9.8-15.3l-10.6-15.1
				l-23.4-28.8l-25.9-26.4l-13.1-11.5l-20.5-16.2l-19.2-13.2l-23.1-13.7l-14.7-7.5l-22.5-9.8l-21.1-7.7l-22-6.3l-25.5-5.7l-25-3.6
				L2325.9,37.9z M2325.9,37.9"/>
		</g>
		<line class="st3" x1="3683.1" y1="2791.8" x2="3926.6" y2="3295.5"/>
		<line class="st4" x1="3573.3" y1="2892.1" x2="3816.8" y2="3395.8"/>
		<line class="st5" x1="3857.1" y1="2616.3" x2="3409.4" y2="3064"/>
		<line class="st6" x1="4009.6" y1="3213.5" x2="3740" y2="3485"/>
		<line class="st1" x1="1045.8" y1="2898.3" x2="800.6" y2="3409.5"/>
		<line class="st1" x1="945.1" y1="2794.2" x2="705.9" y2="3301.5"/>
		<line class="st2" x1="1101.3" y1="2955.6" x2="915.9" y2="2764.1"/>
		<line class="st2" x1="855.9" y1="3456.4" x2="670.5" y2="3265"/>
	</g>
</g>
</svg>
