<?xml version="1.0" encoding="utf-8"?>
<!-- Generator: Adobe Illustrator 27.4.0, SVG Export Plug-In . SVG Version: 6.00 Build 0)  -->
<svg version="1.1" id="Capa_1" xmlns="http://www.w3.org/2000/svg" xmlns:xlink="http://www.w3.org/1999/xlink" x="0px" y="0px"
	 viewBox="0 0 600 600" style="enable-background:new 0 0 600 600;" xml:space="preserve">
<style type="text/css">
	.st0{fill:#5156BE;}
</style>
<g>
	<path class="st0" d="M140.8,550c-7-2.2-14.2-3.2-21.1-5.7c-18.9-6.7-34.4-17.9-47-33.6c-11.8-14.8-19.1-31.3-21.9-50
		c-0.8-5.2-0.6-10.3-0.8-15.4c-0.1-6,3.4-9.6,9.4-9.6c45.7-0.1,91.5-0.2,137.2-0.2c3.1,0,5.9-0.6,8.6-2.2
		c15.5-8.9,29.8-19.5,43.2-31.4c13.5-11.9,24.9-25.4,35.6-39.7c3.4-4.6,5.7-9.4,5.7-15.7c-0.2-92.8-0.2-185.6-0.1-278.3
		c0-4-1.1-8,0.6-11.9c1.9-4.4,6.5-6.8,12.5-5.4c4.2,1,6.9,3.8,7.1,8.5c0.6,11.9,0.6,12,11.8,12.9c19.8,1.5,39.1,5.4,57.9,11.6
		c21.7,7.2,41.8,17.3,60.7,30.2c11.6,7.9,22.2,16.7,32.3,26.3c18.8,17.8,34.6,37.9,46.8,60.7c9,16.8,16.4,34.3,21.3,52.8
		c3.6,13.7,6.8,27.6,7.5,41.8c0.1,1.7,0.7,3.4,1.1,5.1c-0.1,1.4-0.8,2.9,0.8,4c0,12,0,24.1,0,36.1c-1.4,1.2-2.1,2.7-2,4.5
		c0.5,8.4-2.1,16.4-3.3,24.5c-1.5,9.9-4.4,19.8-7.7,29.3c-4.2,12-9.1,23.8-14.4,35.3c-0.2,0.2-0.4,0.5-0.6,0.7c0.2,0,0.5,0,0.7,0
		c2.1,0,4.2-0.1,6.3,0.1c4.7,0.4,9.5-0.6,14.3,1c2.7,0.9,3.5,4.4,6.7,4.1c0,6.2,0,12.4,0,18.6c-1.1,0.4-1.8,1.1-2,2.4
		c-1.2,12.4-5.4,24-11.4,34.7c-12.8,22.7-31.8,38.6-56.3,47.9c-7.8,3-16.1,3.7-24.1,5.9C351.2,550,246,550,140.8,550z M242.3,434.6
		c-0.5,0.2-1,0.5-1.5,0.7c0.6,0,1.2,0,1.7,0c1.8,0,3.6,0.1,5.4,0.1c81.5,0,163.1-0.1,244.6,0.2c4.7,0,6.9-1.9,8.7-5.5
		c4.8-9.9,9.8-19.7,13.5-30c2.2-6.3,5.2-12.6,6.6-18.9c1.4-6.3,2.7-12.7,3.8-19.1c2.5-14.7,4.7-29.5,3.9-44.3
		c-0.8-14.5-0.9-29.2-5.1-43.5c-2.1-7.1-2.6-14.5-5.5-21.5c-3.6-8.7-6.3-17.6-10.2-26.3c-10.4-23.4-24.8-44.1-42.2-62.8
		c-8.7-9.3-18.2-17.8-28.4-25.5c-16.2-12.1-33.8-21.9-52.5-29.7c-20-8.3-40.9-13.1-62.8-15.3c1.3,3.1,2.5,6,3.9,8.8
		c7.9,16.5,14,33.6,17.9,51.6c2,9.2,3.9,18.5,5.2,27.9c1.2,9,2.2,17.9,2.6,26.9c0.6,12.6-0.1,25.2-2.1,37.6
		c-1.8,11-2.3,22.2-5.3,33.1c-3.8,13.9-8,27.7-13.3,41.2c-3.7,9.3-8,18.5-12.5,27.4c-3.2,6.3-7.8,12.3-11.8,18.4
		c-9.2,13.7-19.5,26.5-30.8,38.5C265.7,415.5,253.8,424.8,242.3,434.6z M528.1,456.2c-2,0-3.8,0-5.6,0c-147.1,0-294.3,0-441.4,0
		c-9.9,0-9.3-0.1-7.5,9.7c1.7,9.5,5.3,18,10.6,25.9c9.2,13.6,21.3,24.1,36.5,30.7c11.6,5,23.7,7.1,36.5,7
		c94.4-0.3,188.8-0.3,283.2-0.1c10.1,0,20-0.6,29.7-3.8c16.4-5.5,30.1-14.9,40.9-28.4C520.6,485.2,526.3,471.7,528.1,456.2z
		 M310.8,119.6c0,64.6,0,129.2,0,193.8C337.3,248.8,337.7,184.2,310.8,119.6z"/>
	<path class="st0" d="M466.3,300.7c-1.8-27.5-10.1-52.9-25.2-76c-7.5-11.4-16-22-25.7-31.6c-5.1-5-5.2-10.7-0.7-15.1
		c3.4-3.3,11.7-3.1,15.4,0.6c21.3,20.9,37.5,45.3,47.7,73.4c3.9,10.7,6,21.8,8.1,32.9c1.6,8.6,0.7,17.4,0.7,26.2
		c0,3.3-6.3,7.6-10.1,7.4c-4.1-0.2-8.4-4.2-9.1-7.7C466.8,307.4,465.4,304.2,466.3,300.7z"/>
	<path class="st0" d="M480.7,356.6c0,8.9-4.8,14.8-11.9,14.7c-4.8-0.1-9.8-5.1-9.5-10.1c0.5-8.6,3.9-15.2,11.3-14.5
		C477.2,347.3,480.7,350.2,480.7,356.6z"/>
</g>
</svg>
